<svg xmlns="http://www.w3.org/2000/svg" version="1.1" xmlns:xlink="http://www.w3.org/1999/xlink" xmlns:svgjs="http://svgjs.dev/svgjs" width="2000" height="535" viewBox="0 0 2000 535"><g transform="matrix(1,0,0,1,-1.2121212121212466,1.033348916451473)"><svg viewBox="0 0 396 106" data-background-color="#ffffff" preserveAspectRatio="xMidYMid meet" height="535" width="2000" xmlns="http://www.w3.org/2000/svg" xmlns:xlink="http://www.w3.org/1999/xlink"><g id="tight-bounds" transform="matrix(1,0,0,1,0.2400000000000091,-0.20473828998851218)"><svg viewBox="0 0 395.52 106.40947657997702" height="106.40947657997702" width="395.52"><g><svg viewBox="0 0 410.8766666507721 110.54098664349303" height="106.40947657997702" width="395.52"><g><svg viewBox="0 0 410.8766666507721 110.54098664349303" height="110.54098664349303" width="410.8766666507721"><g id="textblocktransform"><svg viewBox="0 0 410.8766666507721 110.54098664349303" height="110.54098664349303" width="410.8766666507721" id="textblock"><g><svg viewBox="0 0 410.8766666507721 77.15163332047462" height="77.15163332047462" width="410.8766666507721"><g><svg><g></g><g></g></svg></g><g><svg><g><svg></svg></g><g></g></svg></g><g id="text-0"><svg viewBox="0 0 410.8766666507721 77.15163332047462" height="77.15163332047462" width="410.8766666507721"><g transform="matrix(1,0,0,1,0,0)"><svg width="315.51" viewBox="3.75 -36.5 194.99 47.68571428571428" height="77.15163332047462" data-palette-color="#2257bf"><path d="M17.05 0.5L17.05 0.5Q13.8 0.5 11.23-1.2 8.65-2.9 7.15-5.4L7.15-5.4 7.15 10.65 3.75 10.65 3.75-26.05 6.8-26.05 6.8-21Q8.35-23.45 10.95-24.98 13.55-26.5 16.5-26.5L16.5-26.5Q19.2-26.5 21.45-25.38 23.7-24.25 25.35-22.35 27-20.45 27.93-18.03 28.85-15.6 28.85-13L28.85-13Q28.85-9.35 27.38-6.28 25.9-3.2 23.25-1.35 20.6 0.5 17.05 0.5ZM16.1-2.5L16.1-2.5Q18.25-2.5 19.95-3.38 21.65-4.25 22.88-5.75 24.1-7.25 24.75-9.13 25.4-11 25.4-13L25.4-13Q25.4-15.1 24.68-17 23.95-18.9 22.6-20.35 21.25-21.8 19.5-22.65 17.75-23.5 15.7-23.5L15.7-23.5Q14.4-23.5 13-23 11.6-22.5 10.33-21.58 9.05-20.65 8.2-19.5 7.35-18.35 7.15-17.05L7.15-17.05 7.15-9.05Q7.95-7.2 9.3-5.73 10.65-4.25 12.43-3.38 14.2-2.5 16.1-2.5ZM32.5-7.5L32.5-7.5Q32.5-9.95 33.9-11.73 35.3-13.5 37.77-14.48 40.25-15.45 43.5-15.45L43.5-15.45Q45.4-15.45 47.45-15.15 49.5-14.85 51.1-14.25L51.1-14.25 51.1-16.45Q51.1-19.75 49.15-21.7 47.2-23.65 43.75-23.65L43.75-23.65Q41.65-23.65 39.62-22.88 37.6-22.1 35.4-20.6L35.4-20.6 34.1-23Q36.65-24.75 39.1-25.63 41.55-26.5 44.1-26.5L44.1-26.5Q48.9-26.5 51.7-23.75 54.5-21 54.5-16.15L54.5-16.15 54.5-4.1Q54.5-3.4 54.8-3.08 55.1-2.75 55.75-2.7L55.75-2.7 55.75 0Q55.2 0.05 54.8 0.1 54.4 0.15 54.2 0.1L54.2 0.1Q52.95 0.05 52.3-0.7 51.65-1.45 51.6-2.3L51.6-2.3 51.55-4.2Q49.8-1.95 47-0.73 44.2 0.5 41.3 0.5L41.3 0.5Q38.8 0.5 36.77-0.58 34.75-1.65 33.62-3.48 32.5-5.3 32.5-7.5ZM49.95-5.5L49.95-5.5Q50.5-6.2 50.8-6.85 51.1-7.5 51.1-8L51.1-8 51.1-11.8Q49.4-12.45 47.57-12.8 45.75-13.15 43.9-13.15L43.9-13.15Q40.25-13.15 38-11.7 35.75-10.25 35.75-7.75L35.75-7.75Q35.75-6.3 36.5-5.03 37.25-3.75 38.7-2.93 40.15-2.1 42.1-2.1L42.1-2.1Q44.55-2.1 46.67-3.05 48.8-4 49.95-5.5ZM62.55 11.05L62.55 8Q63.25 8.05 63.9 8.08 64.55 8.1 64.84 8L64.84 8Q65.45 7.9 66 7.3 66.55 6.7 67.3 5 68.05 3.3 69.4 0L69.4 0 58.05-26.05 61.65-26.05 71.2-3.5 80-26.05 83.4-26.05 69.9 7.55Q69.55 8.5 68.84 9.33 68.15 10.15 67.12 10.63 66.09 11.1 64.59 11.15L64.59 11.15Q64.14 11.2 63.67 11.18 63.2 11.15 62.55 11.05L62.55 11.05ZM126.89-15.25L126.89 0 123.49 0 123.49-14.55Q123.49-19.1 122.04-21.25 120.59-23.4 117.74-23.4L117.74-23.4Q114.79-23.4 112.47-21.3 110.14-19.2 109.19-15.9L109.19-15.9 109.19 0 105.79 0 105.79-14.55Q105.79-19.15 104.39-21.28 102.99-23.4 100.09-23.4L100.09-23.4Q97.19-23.4 94.84-21.35 92.49-19.3 91.54-15.95L91.54-15.95 91.54 0 88.14 0 88.14-26.05 91.24-26.05 91.24-20.15Q92.89-23.2 95.47-24.85 98.04-26.5 101.19-26.5L101.19-26.5Q104.44-26.5 106.44-24.65 108.44-22.8 108.89-19.8L108.89-19.8Q110.69-23.1 113.22-24.8 115.74-26.5 118.94-26.5L118.94-26.5Q121.14-26.5 122.67-25.7 124.19-24.9 125.12-23.43 126.04-21.95 126.47-19.88 126.89-17.8 126.89-15.25L126.89-15.25ZM137.49 0L134.09 0 134.09-26.05 137.49-26.05 137.49 0ZM137.49-31.5L134.09-31.5 134.09-36.5 137.49-36.5 137.49-31.5ZM166.89-15.25L166.89 0 163.49 0 163.49-14.55Q163.49-19.15 162.14-21.28 160.79-23.4 157.89-23.4L157.89-23.4Q155.89-23.4 153.94-22.43 151.99-21.45 150.51-19.78 149.04-18.1 148.39-15.95L148.39-15.95 148.39 0 144.99 0 144.99-26.05 148.09-26.05 148.09-20.15Q149.14-22.05 150.84-23.48 152.54-24.9 154.69-25.7 156.84-26.5 159.14-26.5L159.14-26.5Q161.29-26.5 162.79-25.7 164.29-24.9 165.19-23.43 166.09-21.95 166.49-19.88 166.89-17.8 166.89-15.25L166.89-15.25ZM172.39-12.95L172.39-12.95Q172.39-16.65 173.91-19.73 175.44-22.8 178.14-24.65 180.84-26.5 184.29-26.5L184.29-26.5Q187.54-26.5 190.11-24.78 192.69-23.05 194.14-20.6L194.14-20.6 194.14-36.5 197.54-36.5 197.54-4.1Q197.54-3.4 197.84-3.08 198.14-2.75 198.74-2.7L198.74-2.7 198.74 0Q197.74 0.15 197.19 0.1L197.19 0.1Q196.14 0.05 195.34-0.75 194.54-1.55 194.54-2.5L194.54-2.5 194.54-5.05Q192.99-2.5 190.34-1 187.69 0.5 184.84 0.5L184.84 0.5Q182.14 0.5 179.86-0.6 177.59-1.7 175.91-3.6 174.24-5.5 173.31-7.93 172.39-10.35 172.39-12.95ZM194.14-8.95L194.14-8.95 194.14-17Q193.49-18.8 192.04-20.28 190.59-21.75 188.76-22.63 186.94-23.5 185.14-23.5L185.14-23.5Q183.04-23.5 181.34-22.63 179.64-21.75 178.41-20.25 177.19-18.75 176.54-16.85 175.89-14.95 175.89-12.95L175.89-12.95Q175.89-10.85 176.61-8.95 177.34-7.05 178.69-5.58 180.04-4.1 181.79-3.3 183.54-2.5 185.59-2.5L185.59-2.5Q186.89-2.5 188.29-3 189.69-3.5 190.96-4.38 192.24-5.25 193.09-6.45 193.94-7.65 194.14-8.95Z" opacity="1" transform="matrix(1,0,0,1,0,0)" fill="#2257bf" class="wordmark-text-0" data-fill-palette-color="primary"></path></svg></g><g><svg xmlns="http://www.w3.org/2000/svg" xmlns:xlink="http://www.w3.org/1999/xlink" version="1.1" x="333.72503333029744" y="0" viewBox="5 5 90 90" enable-background="new 0 0 100 100" xml:space="preserve" height="77.15163332047462" width="77.15163332047462" class="icon-cg-0" data-fill-palette-color="accent" id="cg-0"><g fill="#2257bf" data-fill-palette-color="accent"><path d="M50 7c23.7 0 43 19.3 43 43S73.7 93 50 93 7 73.7 7 50 26.3 7 50 7M50 5C25.2 5 5 25.1 5 50c0 24.9 20.2 45 45 45s45-20.1 45-45C95 25.1 74.8 5 50 5L50 5z" fill="#2257bf" data-fill-palette-color="accent"></path></g><g fill="#2257bf" data-fill-palette-color="accent"><path d="M60.6 68.6c-0.4 1-1.3 1.6-2.4 1.6-0.8 0-1.6-0.4-2-1C57.7 69.1 59.2 68.9 60.6 68.6M62.5 66.2c-2.6 0.6-5.7 1-8.9 1.3 0 0.1 0 0.1 0 0.2 0 2.5 2.1 4.6 4.6 4.6s4.6-2 4.6-4.6C62.8 67.2 62.7 66.7 62.5 66.2L62.5 66.2z" fill="#2257bf" data-fill-palette-color="accent"></path><path d="M50 29.8c1.3 0 2.3 1 2.3 2.3 0 0.1 0 0.3 0 0.4L52 34.2l1.6 0.6c4.9 1.9 8.2 7.2 8.2 13.3 0 3 2.2 12.7 5.1 16-0.5 0.3-1.6 0.9-4 1.4-2.4 0.6-5.4 1-8.6 1.2-1.4 0.1-2.8 0.2-4.2 0.2-1.4 0-2.8-0.1-4.2-0.2-3.2-0.2-6.2-0.7-8.6-1.2-2.4-0.6-3.5-1.1-4-1.4 2.8-3.2 5.1-13 5.1-16 0-6.1 3.3-11.5 8.2-13.3l1.6-0.6-0.3-1.6c0-0.2 0-0.3 0-0.4C47.6 30.8 48.7 29.8 50 29.8L50 29.8M50 27.8L50 27.8c-2.4 0-4.4 1.9-4.4 4.3 0 0.3 0 0.5 0.1 0.8-5.5 2.1-9.5 8.1-9.5 15.2 0 3-2.3 12.4-4.7 14.8-1.9 1.9 0.8 3.5 5.2 4.5 2.6 0.6 5.7 1 8.9 1.3 1.5 0.1 3 0.2 4.4 0.2 1.4 0 2.9-0.1 4.4-0.2 3.2-0.2 6.3-0.7 8.9-1.3 4.4-1 7.1-2.6 5.2-4.5-2.4-2.4-4.7-11.8-4.7-14.8 0-7.1-4-13.1-9.5-15.2 0-0.3 0.1-0.5 0.1-0.8C54.4 29.7 52.4 27.8 50 27.8L50 27.8z" fill="#2257bf" data-fill-palette-color="accent"></path></g></svg></g></svg></g></svg></g><g transform="matrix(1,0,0,1,78.47744333029749,95.36528230823899)"><svg viewBox="0 0 253.92177999017713 15.175704335254041" height="15.175704335254041" width="253.92177999017713"><g transform="matrix(1,0,0,1,0,0)"><svg width="253.92177999017713" viewBox="5 -39 830.66 49.65" height="15.175704335254041" data-palette-color="#2257bf"><path d="M29.15-34.45L29.15 0 22.8 0 8.8-29.25Q9.1-25.8 9.28-22.88 9.45-19.95 9.45-15.8L9.45-15.8 9.45 0 5 0 5-34.45 11.2-34.45 25.35-5.15Q25.2-6.45 24.95-9.7 24.7-12.95 24.7-15.65L24.7-15.65 24.7-34.45 29.15-34.45ZM58.8-13.95Q58.8-12.8 58.7-11.6L58.7-11.6 41.9-11.6Q42.2-7.25 44.1-5.2 46-3.15 49-3.15L49-3.15Q50.9-3.15 52.5-3.7 54.1-4.25 55.85-5.45L55.85-5.45 57.85-2.7Q53.65 0.6 48.65 0.6L48.65 0.6Q43.15 0.6 40.07-3 37-6.6 37-12.9L37-12.9Q37-17 38.32-20.18 39.65-23.35 42.12-25.15 44.6-26.95 47.95-26.95L47.95-26.95Q53.2-26.95 56-23.5 58.8-20.05 58.8-13.95L58.8-13.95ZM54.25-15L54.25-15.3Q54.25-19.2 52.7-21.25 51.15-23.3 48.05-23.3L48.05-23.3Q42.4-23.3 41.9-15L41.9-15 54.25-15ZM80.65-26.35L85.5-26.35 76.55 0 71 0 61.9-26.35 66.9-26.35 73.8-4.1 80.65-26.35ZM110.64-13.95Q110.64-12.8 110.54-11.6L110.54-11.6 93.74-11.6Q94.04-7.25 95.94-5.2 97.84-3.15 100.84-3.15L100.84-3.15Q102.74-3.15 104.34-3.7 105.94-4.25 107.69-5.45L107.69-5.45 109.69-2.7Q105.49 0.6 100.49 0.6L100.49 0.6Q94.99 0.6 91.92-3 88.84-6.6 88.84-12.9L88.84-12.9Q88.84-17 90.17-20.18 91.49-23.35 93.97-25.15 96.44-26.95 99.79-26.95L99.79-26.95Q105.04-26.95 107.84-23.5 110.64-20.05 110.64-13.95L110.64-13.95ZM106.09-15L106.09-15.3Q106.09-19.2 104.54-21.25 102.99-23.3 99.89-23.3L99.89-23.3Q94.24-23.3 93.74-15L93.74-15 106.09-15ZM129.44-26.95Q130.84-26.95 132.04-26.65L132.04-26.65 131.19-22.15Q129.99-22.45 128.89-22.45L128.89-22.45Q126.44-22.45 124.94-20.65 123.44-18.85 122.59-15.05L122.59-15.05 122.59 0 117.99 0 117.99-26.35 121.94-26.35 122.39-21Q123.44-23.95 125.24-25.45 127.04-26.95 129.44-26.95L129.44-26.95ZM159.49-33.8Q157.39-33.8 156.49-32.88 155.59-31.95 155.59-30L155.59-30 155.59-26.35 161.99-26.35 161.49-22.8 155.59-22.8 155.59 0 150.99 0 150.99-22.8 146.29-22.8 146.29-26.35 150.99-26.35 150.99-29.95Q150.99-33.35 153.16-35.43 155.34-37.5 159.24-37.5L159.24-37.5Q161.04-37.5 162.46-37.18 163.89-36.85 165.54-36.15L165.54-36.15 164.09-32.8Q161.84-33.8 159.49-33.8L159.49-33.8ZM177.18-26.95Q182.73-26.95 185.81-23.25 188.88-19.55 188.88-13.2L188.88-13.2Q188.88-9.1 187.48-5.98 186.08-2.85 183.43-1.13 180.78 0.6 177.13 0.6L177.13 0.6Q171.58 0.6 168.48-3.1 165.38-6.8 165.38-13.15L165.38-13.15Q165.38-17.25 166.78-20.38 168.18-23.5 170.83-25.23 173.48-26.95 177.18-26.95L177.18-26.95ZM177.18-23.25Q170.33-23.25 170.33-13.15L170.33-13.15Q170.33-3.1 177.13-3.1L177.13-3.1Q183.93-3.1 183.93-13.2L183.93-13.2Q183.93-23.25 177.18-23.25L177.18-23.25ZM207.93-26.95Q209.33-26.95 210.53-26.65L210.53-26.65 209.68-22.15Q208.48-22.45 207.38-22.45L207.38-22.45Q204.93-22.45 203.43-20.65 201.93-18.85 201.08-15.05L201.08-15.05 201.08 0 196.48 0 196.48-26.35 200.43-26.35 200.88-21Q201.93-23.95 203.73-25.45 205.53-26.95 207.93-26.95L207.93-26.95ZM235.68-29.3L237.03-25.15Q235.53-24.65 233.73-24.5 231.93-24.35 229.33-24.35L229.33-24.35Q233.98-22.25 233.98-17.7L233.98-17.7Q233.98-13.75 231.28-11.25 228.58-8.75 223.93-8.75L223.93-8.75Q222.13-8.75 220.58-9.25L220.58-9.25Q219.98-8.85 219.63-8.18 219.28-7.5 219.28-6.8L219.28-6.8Q219.28-4.65 222.73-4.65L222.73-4.65 226.93-4.65Q229.58-4.65 231.63-3.7 233.68-2.75 234.8-1.1 235.93 0.55 235.93 2.65L235.93 2.65Q235.93 6.5 232.78 8.58 229.63 10.65 223.58 10.65L223.58 10.65Q219.33 10.65 216.85 9.78 214.38 8.9 213.33 7.15 212.28 5.4 212.28 2.65L212.28 2.65 216.43 2.65Q216.43 4.25 217.03 5.18 217.63 6.1 219.18 6.58 220.73 7.05 223.58 7.05L223.58 7.05Q227.73 7.05 229.5 6.03 231.28 5 231.28 2.95L231.28 2.95Q231.28 1.1 229.88 0.15 228.48-0.8 225.98-0.8L225.98-0.8 221.83-0.8Q218.48-0.8 216.75-2.23 215.03-3.65 215.03-5.8L215.03-5.8Q215.03-7.1 215.78-8.3 216.53-9.5 217.93-10.45L217.93-10.45Q215.63-11.65 214.55-13.43 213.48-15.2 213.48-17.75L213.48-17.75Q213.48-20.4 214.8-22.5 216.13-24.6 218.45-25.78 220.78-26.95 223.63-26.95L223.63-26.95Q226.73-26.9 228.83-27.18 230.93-27.45 232.3-27.93 233.68-28.4 235.68-29.3L235.68-29.3ZM223.63-23.65Q221.03-23.65 219.6-22.03 218.18-20.4 218.18-17.75L218.18-17.75Q218.18-15.05 219.63-13.43 221.08-11.8 223.73-11.8L223.73-11.8Q226.43-11.8 227.85-13.38 229.28-14.95 229.28-17.8L229.28-17.8Q229.28-23.65 223.63-23.65L223.63-23.65ZM261.68-13.95Q261.68-12.8 261.58-11.6L261.58-11.6 244.78-11.6Q245.08-7.25 246.98-5.2 248.88-3.15 251.88-3.15L251.88-3.15Q253.78-3.15 255.38-3.7 256.98-4.25 258.73-5.45L258.73-5.45 260.73-2.7Q256.53 0.6 251.53 0.6L251.53 0.6Q246.03 0.6 242.95-3 239.88-6.6 239.88-12.9L239.88-12.9Q239.88-17 241.2-20.18 242.53-23.35 245-25.15 247.48-26.95 250.83-26.95L250.83-26.95Q256.08-26.95 258.88-23.5 261.68-20.05 261.68-13.95L261.68-13.95ZM257.13-15L257.13-15.3Q257.13-19.2 255.58-21.25 254.03-23.3 250.93-23.3L250.93-23.3Q245.28-23.3 244.78-15L244.78-15 257.13-15ZM280.57-4.25L282.32-1.2Q279.72 0.6 276.42 0.6L276.42 0.6Q273.07 0.6 271.2-1.33 269.32-3.25 269.32-6.9L269.32-6.9 269.32-22.8 264.72-22.8 264.72-26.35 269.32-26.35 269.32-32.3 273.92-32.85 273.92-26.35 280.17-26.35 279.67-22.8 273.92-22.8 273.92-7.1Q273.92-5.05 274.65-4.13 275.37-3.2 277.07-3.2L277.07-3.2Q278.62-3.2 280.57-4.25L280.57-4.25ZM311.87-4.25L313.62-1.2Q311.02 0.6 307.72 0.6L307.72 0.6Q304.37 0.6 302.49-1.33 300.62-3.25 300.62-6.9L300.62-6.9 300.62-22.8 296.02-22.8 296.02-26.35 300.62-26.35 300.62-32.3 305.22-32.85 305.22-26.35 311.47-26.35 310.97-22.8 305.22-22.8 305.22-7.1Q305.22-5.05 305.94-4.13 306.67-3.2 308.37-3.2L308.37-3.2Q309.92-3.2 311.87-4.25L311.87-4.25ZM328.27-26.95Q333.82-26.95 336.89-23.25 339.97-19.55 339.97-13.2L339.97-13.2Q339.97-9.1 338.57-5.98 337.17-2.85 334.52-1.13 331.87 0.6 328.22 0.6L328.22 0.6Q322.67 0.6 319.57-3.1 316.47-6.8 316.47-13.15L316.47-13.15Q316.47-17.25 317.87-20.38 319.27-23.5 321.92-25.23 324.57-26.95 328.27-26.95L328.27-26.95ZM328.27-23.25Q321.42-23.25 321.42-13.15L321.42-13.15Q321.42-3.1 328.22-3.1L328.22-3.1Q335.02-3.1 335.02-13.2L335.02-13.2Q335.02-23.25 328.27-23.25L328.27-23.25ZM372.91-26.95Q377.96-26.95 380.31-23.35 382.66-19.75 382.66-13.2L382.66-13.2Q382.66-7 379.96-3.2 377.26 0.6 372.31 0.6L372.31 0.6Q367.91 0.6 365.41-2.4L365.41-2.4 365.41 10.1 360.81 10.65 360.81-26.35 364.76-26.35 365.11-22.8Q366.56-24.8 368.61-25.88 370.66-26.95 372.91-26.95L372.91-26.95ZM371.21-3.15Q377.71-3.15 377.71-13.2L377.71-13.2Q377.71-23.3 371.76-23.3L371.76-23.3Q369.81-23.3 368.21-22.15 366.61-21 365.41-19.2L365.41-19.2 365.41-6.35Q366.41-4.8 367.91-3.98 369.41-3.15 371.21-3.15L371.21-3.15ZM408.26-6.15Q408.26-4.55 408.81-3.78 409.36-3 410.46-2.6L410.46-2.6 409.41 0.6Q407.36 0.35 406.11-0.55 404.86-1.45 404.26-3.35L404.26-3.35Q401.61 0.6 396.41 0.6L396.41 0.6Q392.51 0.6 390.26-1.6 388.01-3.8 388.01-7.35L388.01-7.35Q388.01-11.55 391.03-13.8 394.06-16.05 399.61-16.05L399.61-16.05 403.66-16.05 403.66-18Q403.66-20.8 402.31-22 400.96-23.2 398.16-23.2L398.16-23.2Q395.26-23.2 391.06-21.8L391.06-21.8 389.91-25.15Q394.81-26.95 399.01-26.95L399.01-26.95Q403.66-26.95 405.96-24.68 408.26-22.4 408.26-18.2L408.26-18.2 408.26-6.15ZM397.46-2.85Q401.41-2.85 403.66-6.95L403.66-6.95 403.66-13 400.21-13Q392.91-13 392.91-7.6L392.91-7.6Q392.91-5.25 394.06-4.05 395.21-2.85 397.46-2.85L397.46-2.85ZM437.06-26.35L428.26 0.15Q426.71 4.75 423.93 7.43 421.16 10.1 416.01 10.65L416.01 10.65 415.51 7.05Q418.11 6.6 419.66 5.75 421.21 4.9 422.13 3.58 423.06 2.25 423.86 0L423.86 0 422.31 0 413.46-26.35 418.36-26.35 425.41-3.35 432.31-26.35 437.06-26.35ZM455.55-26.35L460.15-26.35 460.15 0 455.55 0 455.55-26.35ZM457.8-39Q459.25-39 460.15-38.1 461.05-37.2 461.05-35.85L461.05-35.85Q461.05-34.5 460.15-33.63 459.25-32.75 457.8-32.75L457.8-32.75Q456.4-32.75 455.5-33.63 454.6-34.5 454.6-35.85L454.6-35.85Q454.6-37.2 455.5-38.1 456.4-39 457.8-39L457.8-39ZM482.05-26.95Q485.65-26.95 487.67-24.8 489.7-22.65 489.7-18.9L489.7-18.9 489.7 0 485.1 0 485.1-18.25Q485.1-21.05 484.05-22.2 483-23.35 480.95-23.35L480.95-23.35Q478.85-23.35 477.25-22.15 475.65-20.95 474.25-18.7L474.25-18.7 474.25 0 469.65 0 469.65-26.35 473.6-26.35 474-22.45Q475.4-24.55 477.47-25.75 479.55-26.95 482.05-26.95L482.05-26.95ZM513.45-26.35L518.3-26.35 509.35 0 503.8 0 494.7-26.35 499.7-26.35 506.6-4.1 513.45-26.35ZM533.44-26.95Q538.99-26.95 542.07-23.25 545.14-19.55 545.14-13.2L545.14-13.2Q545.14-9.1 543.74-5.98 542.34-2.85 539.69-1.13 537.04 0.6 533.39 0.6L533.39 0.6Q527.84 0.6 524.74-3.1 521.64-6.8 521.64-13.15L521.64-13.15Q521.64-17.25 523.04-20.38 524.44-23.5 527.09-25.23 529.74-26.95 533.44-26.95L533.44-26.95ZM533.44-23.25Q526.59-23.25 526.59-13.15L526.59-13.15Q526.59-3.1 533.39-3.1L533.39-3.1Q540.19-3.1 540.19-13.2L540.19-13.2Q540.19-23.25 533.44-23.25L533.44-23.25ZM552.74-26.35L557.34-26.35 557.34 0 552.74 0 552.74-26.35ZM554.99-39Q556.44-39 557.34-38.1 558.24-37.2 558.24-35.85L558.24-35.85Q558.24-34.5 557.34-33.63 556.44-32.75 554.99-32.75L554.99-32.75Q553.59-32.75 552.69-33.63 551.79-34.5 551.79-35.85L551.79-35.85Q551.79-37.2 552.69-38.1 553.59-39 554.99-39L554.99-39ZM576.44-26.95Q578.79-26.95 580.74-26.28 582.69-25.6 584.49-24.1L584.49-24.1 582.29-21.2Q580.89-22.2 579.56-22.68 578.24-23.15 576.64-23.15L576.64-23.15Q573.44-23.15 571.66-20.6 569.89-18.05 569.89-13.05L569.89-13.05Q569.89-8.05 571.64-5.68 573.39-3.3 576.64-3.3L576.64-3.3Q578.19-3.3 579.49-3.78 580.79-4.25 582.39-5.3L582.39-5.3 584.49-2.3Q580.89 0.6 576.44 0.6L576.44 0.6Q571.09 0.6 568.01-3 564.94-6.6 564.94-12.95L564.94-12.95Q564.94-17.15 566.34-20.3 567.74-23.45 570.31-25.2 572.89-26.95 576.44-26.95L576.44-26.95ZM610.63-13.95Q610.63-12.8 610.53-11.6L610.53-11.6 593.73-11.6Q594.03-7.25 595.93-5.2 597.83-3.15 600.83-3.15L600.83-3.15Q602.73-3.15 604.33-3.7 605.93-4.25 607.68-5.45L607.68-5.45 609.68-2.7Q605.48 0.6 600.48 0.6L600.48 0.6Q594.98 0.6 591.91-3 588.83-6.6 588.83-12.9L588.83-12.9Q588.83-17 590.16-20.18 591.48-23.35 593.96-25.15 596.43-26.95 599.78-26.95L599.78-26.95Q605.03-26.95 607.83-23.5 610.63-20.05 610.63-13.95L610.63-13.95ZM606.08-15L606.08-15.3Q606.08-19.2 604.53-21.25 602.98-23.3 599.88-23.3L599.88-23.3Q594.23-23.3 593.73-15L593.73-15 606.08-15ZM648.98-6.15Q648.98-4.55 649.53-3.78 650.08-3 651.18-2.6L651.18-2.6 650.13 0.6Q648.08 0.35 646.83-0.55 645.58-1.45 644.98-3.35L644.98-3.35Q642.33 0.6 637.13 0.6L637.13 0.6Q633.23 0.6 630.98-1.6 628.73-3.8 628.73-7.35L628.73-7.35Q628.73-11.55 631.75-13.8 634.78-16.05 640.33-16.05L640.33-16.05 644.38-16.05 644.38-18Q644.38-20.8 643.03-22 641.68-23.2 638.88-23.2L638.88-23.2Q635.98-23.2 631.78-21.8L631.78-21.8 630.63-25.15Q635.53-26.95 639.73-26.95L639.73-26.95Q644.38-26.95 646.68-24.68 648.98-22.4 648.98-18.2L648.98-18.2 648.98-6.15ZM638.18-2.85Q642.13-2.85 644.38-6.95L644.38-6.95 644.38-13 640.93-13Q633.63-13 633.63-7.6L633.63-7.6Q633.63-5.25 634.78-4.05 635.93-2.85 638.18-2.85L638.18-2.85ZM670.83-26.95Q674.43-26.95 676.45-24.8 678.48-22.65 678.48-18.9L678.48-18.9 678.48 0 673.88 0 673.88-18.25Q673.88-21.05 672.83-22.2 671.78-23.35 669.73-23.35L669.73-23.35Q667.63-23.35 666.03-22.15 664.43-20.95 663.03-18.7L663.03-18.7 663.03 0 658.43 0 658.43-26.35 662.38-26.35 662.78-22.45Q664.18-24.55 666.25-25.75 668.33-26.95 670.83-26.95L670.83-26.95ZM707.07-26.35L698.27 0.15Q696.72 4.75 693.95 7.43 691.17 10.1 686.02 10.65L686.02 10.65 685.52 7.05Q688.12 6.6 689.67 5.75 691.22 4.9 692.15 3.58 693.07 2.25 693.87 0L693.87 0 692.32 0 683.47-26.35 688.37-26.35 695.42-3.35 702.32-26.35 707.07-26.35ZM738.77-26.95Q742.02-26.95 743.97-24.78 745.92-22.6 745.92-18.9L745.92-18.9 745.92 0 741.32 0 741.32-18.25Q741.32-23.35 737.62-23.35L737.62-23.35Q735.67-23.35 734.32-22.23 732.97-21.1 731.42-18.7L731.42-18.7 731.42 0 726.82 0 726.82-18.25Q726.82-23.35 723.12-23.35L723.12-23.35Q721.12-23.35 719.77-22.2 718.42-21.05 716.92-18.7L716.92-18.7 716.92 0 712.32 0 712.32-26.35 716.27-26.35 716.67-22.5Q719.62-26.95 724.27-26.95L724.27-26.95Q726.72-26.95 728.45-25.7 730.17-24.45 730.92-22.2L730.92-22.2Q732.47-24.5 734.35-25.73 736.22-26.95 738.77-26.95L738.77-26.95ZM765.07-26.95Q770.62-26.95 773.69-23.25 776.77-19.55 776.77-13.2L776.77-13.2Q776.77-9.1 775.37-5.98 773.97-2.85 771.32-1.13 768.67 0.6 765.02 0.6L765.02 0.6Q759.47 0.6 756.37-3.1 753.27-6.8 753.27-13.15L753.27-13.15Q753.27-17.25 754.67-20.38 756.07-23.5 758.72-25.23 761.37-26.95 765.07-26.95L765.07-26.95ZM765.07-23.25Q758.22-23.25 758.22-13.15L758.22-13.15Q758.22-3.1 765.02-3.1L765.02-3.1Q771.82-3.1 771.82-13.2L771.82-13.2Q771.82-23.25 765.07-23.25L765.07-23.25ZM795.82-26.95Q797.22-26.95 798.42-26.65L798.42-26.65 797.57-22.15Q796.37-22.45 795.27-22.45L795.27-22.45Q792.82-22.45 791.32-20.65 789.82-18.85 788.97-15.05L788.97-15.05 788.97 0 784.37 0 784.37-26.35 788.32-26.35 788.77-21Q789.82-23.95 791.62-25.45 793.42-26.95 795.82-26.95L795.82-26.95ZM823.56-13.95Q823.56-12.8 823.46-11.6L823.46-11.6 806.66-11.6Q806.96-7.25 808.86-5.2 810.76-3.15 813.76-3.15L813.76-3.15Q815.66-3.15 817.26-3.7 818.86-4.25 820.61-5.45L820.61-5.45 822.61-2.7Q818.41 0.6 813.41 0.6L813.41 0.6Q807.91 0.6 804.84-3 801.76-6.6 801.76-12.9L801.76-12.9Q801.76-17 803.09-20.18 804.41-23.35 806.89-25.15 809.36-26.95 812.71-26.95L812.71-26.95Q817.96-26.95 820.76-23.5 823.56-20.05 823.56-13.95L823.56-13.95ZM819.01-15L819.01-15.3Q819.01-19.2 817.46-21.25 815.91-23.3 812.81-23.3L812.81-23.3Q807.16-23.3 806.66-15L806.66-15 819.01-15ZM829.56-34.45L834.66-34.45 834.16-11.5 830.11-11.5 829.56-34.45ZM832.16-6.35Q833.66-6.35 834.66-5.35 835.66-4.35 835.66-2.9L835.66-2.9Q835.66-1.45 834.66-0.43 833.66 0.6 832.16 0.6L832.16 0.6Q830.71 0.6 829.71-0.43 828.71-1.45 828.71-2.9L828.71-2.9Q828.71-4.35 829.71-5.35 830.71-6.35 832.16-6.35L832.16-6.35Z" opacity="1" transform="matrix(1,0,0,1,0,0)" fill="#2257bf" class="slogan-text-1" data-fill-palette-color="secondary" id="text-1"></path></svg></g></svg></g></svg></g></svg></g><g></g></svg></g><defs></defs></svg><rect width="395.52" height="106.40947657997702" fill="none" stroke="none" visibility="hidden"></rect></g></svg></g></svg>