<svg xmlns="http://www.w3.org/2000/svg" version="1.1" xmlns:xlink="http://www.w3.org/1999/xlink" xmlns:svgjs="http://svgjs.dev/svgjs" width="128" height="128" viewBox="0 0 128 128"><g transform="matrix(0.8046875,0,0,0.8046875,12.760752631578946,12.760752631578946)"><svg viewBox="0 0 95 95" data-background-color="#ffffff" preserveAspectRatio="xMidYMid meet" height="128" width="128" xmlns="http://www.w3.org/2000/svg" xmlns:xlink="http://www.w3.org/1999/xlink"><g id="tight-bounds" transform="matrix(1,0,0,1,-0.24049999999999727,-0.24049999999999727)"><svg viewBox="0 0 95.481 95.481" height="95.481" width="95.481"><g><svg viewBox="0 0 95.481 95.481" height="95.481" width="95.481"><g><svg viewBox="0 0 95.481 95.481" height="95.481" width="95.481"><g id="textblocktransform"><svg viewBox="0 0 95.481 95.481" height="95.481" width="95.481" id="textblock"><g><svg viewBox="0 0 95.481 95.481" height="95.481" width="95.481"><g><svg viewBox="0 0 95.481 95.481" height="95.481" width="95.481"><g><svg xmlns="http://www.w3.org/2000/svg" xmlns:xlink="http://www.w3.org/1999/xlink" version="1.1" x="0" y="0" viewBox="5 5 90 90" enable-background="new 0 0 100 100" xml:space="preserve" height="95.481" width="95.481" class="icon-icon-0" data-fill-palette-color="accent" id="icon-0"><g fill="#2257bf" data-fill-palette-color="accent"><path d="M50 7c23.7 0 43 19.3 43 43S73.7 93 50 93 7 73.7 7 50 26.3 7 50 7M50 5C25.2 5 5 25.1 5 50c0 24.9 20.2 45 45 45s45-20.1 45-45C95 25.1 74.8 5 50 5L50 5z" fill="#2257bf" data-fill-palette-color="accent"></path></g><g fill="#2257bf" data-fill-palette-color="accent"><path d="M60.6 68.6c-0.4 1-1.3 1.6-2.4 1.6-0.8 0-1.6-0.4-2-1C57.7 69.1 59.2 68.9 60.6 68.6M62.5 66.2c-2.6 0.6-5.7 1-8.9 1.3 0 0.1 0 0.1 0 0.2 0 2.5 2.1 4.6 4.6 4.6s4.6-2 4.6-4.6C62.8 67.2 62.7 66.7 62.5 66.2L62.5 66.2z" fill="#2257bf" data-fill-palette-color="accent"></path><path d="M50 29.8c1.3 0 2.3 1 2.3 2.3 0 0.1 0 0.3 0 0.4L52 34.2l1.6 0.6c4.9 1.9 8.2 7.2 8.2 13.3 0 3 2.2 12.7 5.1 16-0.5 0.3-1.6 0.9-4 1.4-2.4 0.6-5.4 1-8.6 1.2-1.4 0.1-2.8 0.2-4.2 0.2-1.4 0-2.8-0.1-4.2-0.2-3.2-0.2-6.2-0.7-8.6-1.2-2.4-0.6-3.5-1.1-4-1.4 2.8-3.2 5.1-13 5.1-16 0-6.1 3.3-11.5 8.2-13.3l1.6-0.6-0.3-1.6c0-0.2 0-0.3 0-0.4C47.6 30.8 48.7 29.8 50 29.8L50 29.8M50 27.8L50 27.8c-2.4 0-4.4 1.9-4.4 4.3 0 0.3 0 0.5 0.1 0.8-5.5 2.1-9.5 8.1-9.5 15.2 0 3-2.3 12.4-4.7 14.8-1.9 1.9 0.8 3.5 5.2 4.5 2.6 0.6 5.7 1 8.9 1.3 1.5 0.1 3 0.2 4.4 0.2 1.4 0 2.9-0.1 4.4-0.2 3.2-0.2 6.3-0.7 8.9-1.3 4.4-1 7.1-2.6 5.2-4.5-2.4-2.4-4.7-11.8-4.7-14.8 0-7.1-4-13.1-9.5-15.2 0-0.3 0.1-0.5 0.1-0.8C54.4 29.7 52.4 27.8 50 27.8L50 27.8z" fill="#2257bf" data-fill-palette-color="accent"></path></g></svg></g></svg></g></svg></g></svg></g></svg></g><g></g></svg></g><defs></defs></svg><rect width="95.481" height="95.481" fill="none" stroke="none" visibility="hidden"></rect></g></svg></g></svg>